# xmcd
#
# Track frame offsets: 
#        150
#        11804
#        23336
#        37144
#        51964
#        66928
#        81978
#        94238
#        109459
#        119752
#        136185
#        147704
#        163725
#        173534
#
# Disc length: 2737 seconds
#
# Revision: 0
# Processed by: cddbd v1.5.2PL0 Copyright (c) Steve Scherf et al.
# Submitted via: ExactAudioCopy v0.99pb5
#
DISCID=cc0aaf0e
DTITLE=Kevin Mark - Cuttin' Loose 
DYEAR=2007
DGENRE=Blues
TTITLE0=Goin' To Vegas
TTITLE1=Let's Party All Night
TTITLE2=I'll Be Good To You
TTITLE3=If Your Phone Don't Ring
TTITLE4=Cuttin' Loose
TTITLE5=Pretty Little Thing
TTITLE6=Seven Nights To Rock
TTITLE7=You're Fat
TTITLE8=It's Saturday Nite
TTITLE9=You Bust Me
TTITLE10=One Bad Stud
TTITLE11=Stop Your Cryin'
TTITLE12=King Albert - Instrumental
TTITLE13=St. James Infimary
EXTD=
EXTT0=
EXTT1=
EXTT2=
EXTT3=
EXTT4=
EXTT5=
EXTT6=
EXTT7=
EXTT8=
EXTT9=
EXTT10=
EXTT11=
EXTT12=
EXTT13=
PLAYORDER=
